<svg width="20.000000" height="20.000000" viewBox="0 0 20 20" fill="none" xmlns="http://www.w3.org/2000/svg" xmlns:xlink="http://www.w3.org/1999/xlink">
	<desc>
			Created with Pixso.
	</desc>
	<defs/>
	<path d="M1.87 4.37C1.87 4.03 2.15 3.75 2.5 3.75L17.5 3.75C17.84 3.75 18.12 4.03 18.12 4.37L18.12 15C18.12 15.33 17.99 15.64 17.75 15.88C17.52 16.11 17.2 16.25 16.87 16.25L3.12 16.25C2.79 16.25 2.47 16.11 2.24 15.88C2 15.64 1.87 15.33 1.87 15L1.87 4.37ZM3.12 5L3.12 15L16.87 15L16.87 5L3.12 5Z" fill="#D8D8D8" fill-opacity="1.000000" fill-rule="evenodd"/>
	<path d="M2.03 3.95C2.27 3.69 2.66 3.68 2.92 3.91L10 10.4L17.07 3.91C17.33 3.68 17.72 3.69 17.96 3.95C18.19 4.2 18.17 4.6 17.92 4.83L10.42 11.71C10.18 11.92 9.81 11.92 9.57 11.71L2.07 4.83C1.82 4.6 1.8 4.2 2.03 3.95Z" fill="#D8D8D8" fill-opacity="1.000000" fill-rule="evenodd"/>
</svg>
