<svg width="158.000000" height="32.000000" viewBox="0 0 158 32" fill="none" xmlns="http://www.w3.org/2000/svg" xmlns:xlink="http://www.w3.org/1999/xlink">
	<desc>
			Created with Pixso.
	</desc>
	<defs/>
	<path id="Vector" d="M12 19.5C12.82 19.5 13.5 18.82 13.5 18C13.5 17.17 12.82 16.5 12 16.5C11.17 16.5 10.5 17.17 10.5 18C10.5 18.82 11.17 19.5 12 19.5Z" fill="#858584" fill-opacity="1.000000" fill-rule="nonzero"/>
	<path id="Vector" d="M20 19.5C20.82 19.5 21.5 18.82 21.5 18C21.5 17.17 20.82 16.5 20 16.5C19.17 16.5 18.5 17.17 18.5 18C18.5 18.82 19.17 19.5 20 19.5Z" fill="#858584" fill-opacity="1.000000" fill-rule="nonzero"/>
	<path id="Vector (Stroke)" d="M15.99 10C13.82 9.98 11.66 10.3 9.59 10.95C9.07 11.11 8.51 10.82 8.34 10.29C8.18 9.77 8.47 9.21 9 9.04C11.26 8.33 13.62 7.98 16 8C18.37 7.98 20.73 8.33 22.99 9.04C23.52 9.21 23.81 9.77 23.65 10.29C23.48 10.82 22.92 11.11 22.4 10.95C20.33 10.3 18.17 9.98 16 10L15.99 10Z" fill="#858584" fill-opacity="1.000000" fill-rule="evenodd"/>
	<path id="Vector (Stroke)" d="M8.34 21.7C8.51 21.17 9.07 20.88 9.59 21.04C11.66 21.69 13.82 22.01 15.99 22L16 22C18.17 22.01 20.33 21.69 22.4 21.04C22.92 20.88 23.48 21.17 23.65 21.7C23.81 22.22 23.52 22.78 22.99 22.95C20.73 23.66 18.37 24.01 16 24C13.62 24.01 11.26 23.66 9 22.95C8.47 22.78 8.18 22.22 8.34 21.7Z" fill="#858584" fill-opacity="1.000000" fill-rule="evenodd"/>
	<path id="Vector (Stroke)" d="M20.21 4.81C20.65 4.56 21.15 4.49 21.63 4.59C22.95 4.88 24.24 5.28 25.49 5.79C25.77 5.9 26.02 6.07 26.22 6.29C26.43 6.51 26.58 6.78 26.67 7.08L30.9 21.22C31.01 21.59 31.02 21.98 30.91 22.35C30.8 22.72 30.59 23.05 30.31 23.31L30.3 23.31C28.23 25.11 25.43 26.47 22.25 27.25C21.81 27.36 21.34 27.32 20.93 27.13C20.52 26.94 20.18 26.61 19.99 26.2L18.48 23.21C18.23 22.71 18.43 22.11 18.92 21.86C19.41 21.62 20.01 21.81 20.26 22.31L21.78 25.31L21.78 25.31C24.71 24.59 27.21 23.35 28.99 21.8L29.64 22.56L28.98 21.81C28.98 21.81 28.99 21.8 28.99 21.8C28.99 21.8 28.99 21.8 28.99 21.79L24.75 7.65C24.75 7.65 24.74 7.65 24.74 7.64C23.6 7.17 22.41 6.81 21.21 6.55L21.21 6.55C21.2 6.55 21.2 6.55 21.2 6.55C21.19 6.55 21.19 6.55 21.19 6.55L20.21 9.53C20.03 10.06 19.47 10.34 18.94 10.17C18.42 10 18.13 9.43 18.31 8.91L19.3 5.91C19.46 5.44 19.78 5.05 20.21 4.81Z" fill="#858584" fill-opacity="1.000000" fill-rule="evenodd"/>
	<path id="Vector (Stroke)" d="M10.79 6.55C10.79 6.55 10.79 6.55 10.78 6.55L10.78 6.55C9.58 6.81 8.39 7.17 7.25 7.64C7.25 7.65 7.24 7.65 7.24 7.65L3 21.79C3 21.8 3 21.8 3 21.8C3 21.8 3 21.81 3.01 21.81C4.79 23.35 7.28 24.59 10.21 25.31L10.21 25.31L11.73 22.31C11.98 21.81 12.58 21.62 13.07 21.86C13.56 22.11 13.76 22.71 13.51 23.21L12 26.2C11.81 26.61 11.47 26.94 11.06 27.13C10.65 27.32 10.18 27.36 9.74 27.25C6.56 26.47 3.76 25.11 1.69 23.31L1.68 23.31C1.4 23.05 1.19 22.72 1.08 22.35C0.97 21.98 0.98 21.59 1.09 21.22L5.32 7.08C5.41 6.78 5.56 6.51 5.77 6.29C5.97 6.07 6.22 5.9 6.5 5.79C7.75 5.28 9.04 4.88 10.36 4.59C10.84 4.49 11.35 4.56 11.78 4.81C12.21 5.05 12.53 5.44 12.69 5.91L12.7 5.92L13.68 8.91C13.86 9.43 13.57 10 13.05 10.17C12.52 10.34 11.96 10.06 11.78 9.53L10.8 6.55C10.8 6.55 10.8 6.55 10.79 6.55Z" fill="#858584" fill-opacity="1.000000" fill-rule="evenodd"/>
	<path id="Vector" d="M12 19.5C12.82 19.5 13.5 18.82 13.5 18C13.5 17.17 12.82 16.5 12 16.5C11.17 16.5 10.5 17.17 10.5 18C10.5 18.82 11.17 19.5 12 19.5Z" fill="#858584" fill-opacity="1.000000" fill-rule="nonzero"/>
	<path id="Vector" d="M20 19.5C20.82 19.5 21.5 18.82 21.5 18C21.5 17.17 20.82 16.5 20 16.5C19.17 16.5 18.5 17.17 18.5 18C18.5 18.82 19.17 19.5 20 19.5Z" fill="#858584" fill-opacity="1.000000" fill-rule="nonzero"/>
	<path id="Vector (Stroke)" d="M15.99 10C13.82 9.98 11.66 10.3 9.59 10.95C9.07 11.11 8.51 10.82 8.34 10.29C8.18 9.77 8.47 9.21 9 9.04C11.26 8.33 13.62 7.98 16 8C18.37 7.98 20.73 8.33 22.99 9.04C23.52 9.21 23.81 9.77 23.65 10.29C23.48 10.82 22.92 11.11 22.4 10.95C20.33 10.3 18.17 9.98 16 10L15.99 10Z" fill="#858584" fill-opacity="1.000000" fill-rule="evenodd"/>
	<path id="Vector (Stroke)" d="M8.34 21.7C8.51 21.17 9.07 20.88 9.59 21.04C11.66 21.69 13.82 22.01 15.99 22L16 22C18.17 22.01 20.33 21.69 22.4 21.04C22.92 20.88 23.48 21.17 23.65 21.7C23.81 22.22 23.52 22.78 22.99 22.95C20.73 23.66 18.37 24.01 16 24C13.62 24.01 11.26 23.66 9 22.95C8.47 22.78 8.18 22.22 8.34 21.7Z" fill="#858584" fill-opacity="1.000000" fill-rule="evenodd"/>
	<path id="Vector (Stroke)" d="M20.21 4.81C20.65 4.56 21.15 4.49 21.63 4.59C22.95 4.88 24.24 5.28 25.49 5.79C25.77 5.9 26.02 6.07 26.22 6.29C26.43 6.51 26.58 6.78 26.67 7.08L30.9 21.22C31.01 21.59 31.02 21.98 30.91 22.35C30.8 22.72 30.59 23.05 30.31 23.31L30.3 23.31C28.23 25.11 25.43 26.47 22.25 27.25C21.81 27.36 21.34 27.32 20.93 27.13C20.52 26.94 20.18 26.61 19.99 26.2L18.48 23.21C18.23 22.71 18.43 22.11 18.92 21.86C19.41 21.62 20.01 21.81 20.26 22.31L21.78 25.31L21.78 25.31C24.71 24.59 27.21 23.35 28.99 21.8L29.64 22.56L28.98 21.81C28.98 21.81 28.99 21.8 28.99 21.8C28.99 21.8 28.99 21.8 28.99 21.79L24.75 7.65C24.75 7.65 24.74 7.65 24.74 7.64C23.6 7.17 22.41 6.81 21.21 6.55L21.21 6.55C21.2 6.55 21.2 6.55 21.2 6.55C21.19 6.55 21.19 6.55 21.19 6.55L20.21 9.53C20.03 10.06 19.47 10.34 18.94 10.17C18.42 10 18.13 9.43 18.31 8.91L19.3 5.91C19.46 5.44 19.78 5.05 20.21 4.81Z" fill="#858584" fill-opacity="1.000000" fill-rule="evenodd"/>
	<path id="Vector (Stroke)" d="M10.79 6.55C10.79 6.55 10.79 6.55 10.78 6.55L10.78 6.55C9.58 6.81 8.39 7.17 7.25 7.64C7.25 7.65 7.24 7.65 7.24 7.65L3 21.79C3 21.8 3 21.8 3 21.8C3 21.8 3 21.81 3.01 21.81C4.79 23.35 7.28 24.59 10.21 25.31L10.21 25.31L11.73 22.31C11.98 21.81 12.58 21.62 13.07 21.86C13.56 22.11 13.76 22.71 13.51 23.21L12 26.2C11.81 26.61 11.47 26.94 11.06 27.13C10.65 27.32 10.18 27.36 9.74 27.25C6.56 26.47 3.76 25.11 1.69 23.31L1.68 23.31C1.4 23.05 1.19 22.72 1.08 22.35C0.97 21.98 0.98 21.59 1.09 21.22L5.32 7.08C5.41 6.78 5.56 6.51 5.77 6.29C5.97 6.07 6.22 5.9 6.5 5.79C7.75 5.28 9.04 4.88 10.36 4.59C10.84 4.49 11.35 4.56 11.78 4.81C12.21 5.05 12.53 5.44 12.69 5.91L12.7 5.92L13.68 8.91C13.86 9.43 13.57 10 13.05 10.17C12.52 10.34 11.96 10.06 11.78 9.53L10.8 6.55C10.8 6.55 10.8 6.55 10.79 6.55Z" fill="#858584" fill-opacity="1.000000" fill-rule="evenodd"/>
	<path id="Vector (Stroke)" d="M55.52 11.11C55.85 10.94 56.24 10.96 56.55 11.16L62.55 15.16C62.83 15.35 63 15.66 63 16C63 16.33 62.83 16.64 62.55 16.83L56.55 20.83C56.24 21.03 55.85 21.05 55.52 20.88C55.2 20.7 55 20.36 55 20L55 12C55 11.63 55.2 11.29 55.52 11.11ZM57 13.86L57 18.13L60.19 16L57 13.86Z" fill="#858584" fill-opacity="1.000000" fill-rule="evenodd"/>
	<path id="Vector (Stroke)" d="M57.99 5.05L57.98 5.05L57.91 5.05C57.86 5.05 57.78 5.05 57.68 5.05C57.47 5.05 57.18 5.05 56.82 5.07C56.09 5.09 55.07 5.13 53.92 5.23C51.64 5.42 48.74 5.82 46.51 6.67L46.5 6.68C46.06 6.86 45.67 7.13 45.36 7.49C45.04 7.84 44.82 8.26 44.7 8.72L44.7 8.72C44.39 9.94 44 12.2 44 16C44 19.79 44.39 22.05 44.7 23.27L44.7 23.27C44.82 23.73 45.04 24.15 45.36 24.51C45.67 24.86 46.06 25.14 46.5 25.31L46.51 25.32C48.74 26.17 51.64 26.57 53.92 26.76C55.07 26.86 56.09 26.91 56.82 26.93C57.18 26.94 57.47 26.94 57.68 26.94C57.78 26.95 57.86 26.95 57.91 26.95L57.98 26.95L57.99 26.95L58 26.95L58.01 26.95L58.08 26.95C58.13 26.95 58.21 26.95 58.31 26.94C58.52 26.94 58.81 26.94 59.17 26.93C59.9 26.91 60.92 26.86 62.07 26.76C64.35 26.57 67.25 26.17 69.48 25.32L69.49 25.31C69.93 25.14 70.32 24.86 70.63 24.51C70.95 24.15 71.17 23.73 71.29 23.27L71.29 23.27C71.6 22.05 72 19.79 72 16C72 12.2 71.6 9.94 71.29 8.72L71.29 8.72C71.17 8.26 70.95 7.84 70.63 7.49C70.32 7.13 69.93 6.86 69.49 6.68L69.48 6.67C67.25 5.82 64.35 5.42 62.07 5.23C60.92 5.13 59.9 5.09 59.17 5.07C58.81 5.05 58.52 5.05 58.31 5.05C58.21 5.05 58.13 5.05 58.08 5.05L58.01 5.05L58 5.05L57.99 5.05ZM57.99 24.95L58 24.95L58 24.95L58.02 24.95L58.07 24.95C58.12 24.95 58.19 24.95 58.29 24.94C58.48 24.94 58.76 24.94 59.11 24.93C59.82 24.91 60.8 24.86 61.9 24.77C64.14 24.58 66.8 24.2 68.75 23.45C68.9 23.39 69.03 23.3 69.13 23.18C69.24 23.07 69.31 22.92 69.35 22.77C69.62 21.74 70 19.65 70 16C70 12.34 69.62 10.25 69.35 9.22C69.31 9.07 69.24 8.93 69.13 8.81C69.03 8.69 68.9 8.6 68.75 8.54C66.8 7.79 64.14 7.41 61.9 7.22C60.8 7.13 59.82 7.08 59.11 7.07C58.76 7.05 58.48 7.05 58.29 7.05C58.19 7.05 58.12 7.05 58.07 7.05L58.02 7.05L58 7.05L58 7.05L57.99 7.05L57.99 7.05L57.97 7.05L57.92 7.05C57.87 7.05 57.8 7.05 57.7 7.05C57.51 7.05 57.23 7.05 56.88 7.07C56.17 7.08 55.19 7.13 54.09 7.22C51.85 7.41 49.19 7.79 47.24 8.54C47.09 8.6 46.96 8.69 46.86 8.81C46.75 8.93 46.68 9.07 46.64 9.22C46.37 10.25 46 12.34 46 16C46 19.65 46.37 21.74 46.64 22.77C46.68 22.92 46.75 23.07 46.86 23.18C46.96 23.3 47.09 23.39 47.24 23.45C49.19 24.2 51.85 24.58 54.09 24.77C55.19 24.86 56.17 24.91 56.88 24.93C57.23 24.94 57.51 24.94 57.7 24.94C57.8 24.95 57.87 24.95 57.92 24.95L57.97 24.95L57.99 24.95L57.99 24.95Z" fill="#858584" fill-opacity="1.000000" fill-rule="evenodd"/>
	<path id="Vector" d="M105.06 6C106.02 6.01 106.96 6.3 107.76 6.83C108.57 7.36 109.2 8.11 109.58 9L114 9L109.96 13.03C109.7 17.09 107.9 20.89 104.94 23.67C101.97 26.45 98.06 28 94 28C90 28 89 26.5 89 26.5C89 26.5 93 25 95 22C95 22 87 18 89 7C89 7 94 12 100 13L100 11C100 8.25 102.31 5.96 105.06 6Z" stroke="#858584" stroke-opacity="1.000000" stroke-width="2.000000" stroke-linejoin="round"/>
	<path id="Vector (Stroke)" d="M142 12C139.79 12 138 13.79 138 16C138 18.2 139.79 20 142 20C144.2 20 146 18.2 146 16C146 13.79 144.2 12 142 12ZM136 16C136 12.68 138.68 10 142 10C145.31 10 148 12.68 148 16C148 19.31 145.31 22 142 22C138.68 22 136 19.31 136 16Z" fill="#858584" fill-opacity="1.000000" fill-rule="evenodd"/>
	<path id="Vector (Stroke)" d="M136.5 5.5C133.73 5.5 131.5 7.73 131.5 10.5L131.5 21.5C131.5 24.26 133.73 26.5 136.5 26.5L147.5 26.5C150.26 26.5 152.5 24.26 152.5 21.5L152.5 10.5C152.5 7.73 150.26 5.5 147.5 5.5L136.5 5.5ZM129.5 10.5C129.5 6.63 132.63 3.5 136.5 3.5L147.5 3.5C151.36 3.5 154.5 6.63 154.5 10.5L154.5 21.5C154.5 25.36 151.36 28.5 147.5 28.5L136.5 28.5C132.63 28.5 129.5 25.36 129.5 21.5L129.5 10.5Z" fill="#858584" fill-opacity="1.000000" fill-rule="evenodd"/>
	<path id="Vector" d="M148.5 11C149.32 11 150 10.32 150 9.5C150 8.67 149.32 8 148.5 8C147.67 8 147 8.67 147 9.5C147 10.32 147.67 11 148.5 11Z" fill="#858584" fill-opacity="1.000000" fill-rule="nonzero"/>
</svg>
