<svg width="20.000000" height="20.000000" viewBox="0 0 20 20" fill="none" xmlns="http://www.w3.org/2000/svg" xmlns:xlink="http://www.w3.org/1999/xlink">
	<desc>
			Created with Pixso.
	</desc>
	<defs/>
	<path d="M10 10C9.48 10 9.06 10.41 9.06 10.93C9.06 11.45 9.48 11.87 10 11.87C10.51 11.87 10.93 11.45 10.93 10.93C10.93 10.41 10.51 10 10 10ZM7.81 10.93C7.81 9.72 8.79 8.75 10 8.75C11.2 8.75 12.18 9.72 12.18 10.93C12.18 12.14 11.2 13.12 10 13.12C8.79 13.12 7.81 12.14 7.81 10.93Z" fill="#D8D8D8" fill-opacity="1.000000" fill-rule="evenodd"/>
	<path d="M10 11.87C10.34 11.87 10.62 12.15 10.62 12.5L10.62 14.37C10.62 14.71 10.34 15 10 15C9.65 15 9.37 14.71 9.37 14.37L9.37 12.5C9.37 12.15 9.65 11.87 10 11.87Z" fill="#D8D8D8" fill-opacity="1.000000" fill-rule="evenodd"/>
	<path d="M2.5 7.5C2.5 6.8 3.06 6.25 3.75 6.25L16.25 6.25C16.93 6.25 17.5 6.8 17.5 7.5L17.5 16.25C17.5 16.94 16.93 17.5 16.25 17.5L3.75 17.5C3.06 17.5 2.5 16.94 2.5 16.25L2.5 7.5ZM16.25 7.5L3.75 7.5L3.75 16.25L16.25 16.25L16.25 7.5Z" fill="#D8D8D8" fill-opacity="1.000000" fill-rule="evenodd"/>
	<path d="M10 1.87C9.41 1.87 8.86 2.1 8.45 2.51C8.04 2.92 7.81 3.48 7.81 4.06L7.81 6.87C7.81 7.21 7.53 7.5 7.18 7.5C6.84 7.5 6.56 7.21 6.56 6.87L6.56 4.06C6.56 3.15 6.92 2.27 7.56 1.63C8.21 0.98 9.08 0.62 10 0.62C10.91 0.62 11.78 0.98 12.43 1.63C13.07 2.27 13.43 3.15 13.43 4.06L13.43 6.87C13.43 7.21 13.15 7.5 12.81 7.5C12.46 7.5 12.18 7.21 12.18 6.87L12.18 4.06C12.18 3.48 11.95 2.92 11.54 2.51C11.13 2.1 10.58 1.87 10 1.87Z" fill="#D8D8D8" fill-opacity="1.000000" fill-rule="evenodd"/>
</svg>
