<svg width="24.000000" height="24.000000" viewBox="0 0 24 24" fill="none" xmlns="http://www.w3.org/2000/svg" xmlns:xlink="http://www.w3.org/1999/xlink">
	<desc>
			Created with Pixso.
	</desc>
	<defs/>
	<path id="Vector (Stroke)" d="M10.87 3.75C6.93 3.75 3.75 6.94 3.75 10.87C3.75 14.8 6.93 18 10.87 18C14.81 18 18 14.8 18 10.87C18 6.94 14.81 3.75 10.87 3.75ZM2.25 10.87C2.25 6.11 6.11 2.25 10.87 2.25C15.63 2.25 19.5 6.11 19.5 10.87C19.5 15.63 15.63 19.5 10.87 19.5C6.11 19.5 2.25 15.63 2.25 10.87Z" fill="#FFFFFF" fill-opacity="1.000000" fill-rule="evenodd"/>
	<path id="Vector (Stroke)" d="M15.91 15.91C16.2 15.62 16.68 15.62 16.97 15.91L21.52 20.46C21.82 20.76 21.82 21.23 21.52 21.53C21.23 21.82 20.76 21.82 20.46 21.53L15.91 16.97C15.62 16.68 15.62 16.2 15.91 15.91Z" fill="#FFFFFF" fill-opacity="1.000000" fill-rule="evenodd"/>
</svg>
